<svg id="_90_code_development_outline" xmlns="http://www.w3.org/2000/svg" viewBox="0 0 500 500" data-imageid="coding-28" imageName="Coding" class="illustrations_image" style="width: 183px;"><defs><style>.cls-1_coding-28{opacity:.14;}.cls-1_coding-28,.cls-2_coding-28,.cls-3_coding-28,.cls-4_coding-28,.cls-5_coding-28,.cls-6_coding-28,.cls-7_coding-28,.cls-8_coding-28,.cls-9_coding-28,.cls-10_coding-28{fill:none;}.cls-11_coding-28{fill:#fff;}.cls-12_coding-28{fill:#f4a28c;}.cls-2_coding-28{opacity:.46;}.cls-13_coding-28{fill:#a5a5a5;}.cls-3_coding-28{opacity:.42;}.cls-4_coding-28{opacity:.58;}.cls-5_coding-28{opacity:.18;}.cls-14_coding-28{fill:#e6e6e6;}.cls-6_coding-28{opacity:.03;}.cls-7_coding-28{opacity:.73;}.cls-8_coding-28{opacity:.08;}.cls-9_coding-28{opacity:.3;}.cls-15_coding-28{fill:#24285b;}.cls-16_coding-28{fill:#000001;}.cls-17_coding-28{fill:#ffd200;}.cls-10_coding-28{opacity:.1;}.cls-18_coding-28{fill:#68e1fd;}</style></defs><g id="bg_coding-28" class="cls-9_coding-28"><circle class="cls-14_coding-28" cx="250" cy="208.22" r="167.05"/></g><g id="sd_coding-28" class="cls-6_coding-28"><ellipse class="cls-16_coding-28" cx="250" cy="423.48" rx="238.15" ry="35.36"/></g><g id="coding_table_person_coding-28"><path class="cls-12_coding-28" d="m415.57,276.71s25.06-4.05,23.37,11.28h-23.37v-11.28Z"/><polygon class="cls-14_coding-28" points="360.05 248.84 352.47 285.58 394.98 285.58 389.19 243.35 360.05 248.84"/><rect class="cls-15_coding-28" x="289.77" y="130.24" width="168.59" height="114.51"/><rect class="cls-18_coding-28 targetColor" x="349" y="205.95" width="53.04" height="4.98" style="fill: rgb(49, 174, 72);"/><rect class="cls-17_coding-28" x="372.64" y="219.04" width="53.04" height="4.98"/><rect class="cls-14_coding-28" x="289.77" y="234.9" width="168.59" height="21.68"/><rect class="cls-18_coding-28 targetColor" x="336.24" y="193.91" width="44.51" height="4.98" style="fill: rgb(49, 174, 72);"/><rect class="cls-18_coding-28 targetColor" x="390" y="193.91" width="44.51" height="4.98" style="fill: rgb(49, 174, 72);"/><rect class="cls-17_coding-28" x="349" y="180.04" width="39.79" height="4.98"/><rect class="cls-17_coding-28" x="399.16" y="180.04" width="39.79" height="4.98"/><rect class="cls-11_coding-28" x="319.72" y="205.95" width="19.95" height="4.98"/><rect class="cls-11_coding-28" x="339.59" y="219.04" width="19.95" height="4.98"/><rect class="cls-11_coding-28" x="306.96" y="193.91" width="19.95" height="4.98"/><g class="cls-1_coding-28"><path class="cls-16_coding-28" d="m311.79,170.46s82.35-8.28,64.18,86.12l6.27,23.09-25.66-13.99,2.07-9.07-13.61-.02-33.24-86.12Z"/></g><circle class="cls-18_coding-28 targetColor" cx="311.79" cy="141.5" r="2.35" style="fill: rgb(49, 174, 72);"/><circle class="cls-17_coding-28" cx="318.38" cy="141.5" r="2.35"/><rect class="cls-11_coding-28" x="306.96" y="156.03" width="19.95" height="4.98"/><rect class="cls-11_coding-28" x="319.72" y="168.49" width="19.95" height="4.98"/><rect class="cls-17_coding-28" x="349" y="168.49" width="39.79" height="4.98"/><rect class="cls-17_coding-28" x="399.16" y="168.49" width="39.79" height="4.98"/><rect class="cls-11_coding-28" x="319.72" y="180.04" width="19.95" height="4.98"/><rect class="cls-18_coding-28 targetColor" x="334.88" y="156.03" width="41.09" height="4.98" style="fill: rgb(49, 174, 72);"/><rect class="cls-18_coding-28 targetColor" x="384.57" y="156.03" width="29.18" height="4.98" style="fill: rgb(49, 174, 72);"/><circle class="cls-13_coding-28" cx="375.97" cy="244.98" r="6.27"/><rect class="cls-14_coding-28" x="52.73" y="279.67" width="84.74" height="5.91"/><path class="cls-12_coding-28" d="m86.51,276.71s-25.06-4.05-23.37,11.28h23.37v-11.28Z"/><polygon class="cls-14_coding-28" points="133.1 248.84 125.52 285.58 168.03 285.58 162.24 243.35 133.1 248.84"/><rect class="cls-15_coding-28" x="55.75" y="130.24" width="168.59" height="114.51"/><rect class="cls-18_coding-28 targetColor" x="114.99" y="205.95" width="53.04" height="4.98" style="fill: rgb(49, 174, 72);"/><rect class="cls-14_coding-28" x="55.75" y="234.9" width="168.59" height="21.68"/><rect class="cls-18_coding-28 targetColor" x="102.22" y="193.91" width="44.51" height="4.98" style="fill: rgb(49, 174, 72);"/><rect class="cls-17_coding-28" x="114.99" y="180.04" width="39.79" height="4.98"/><rect class="cls-11_coding-28" x="85.71" y="205.95" width="19.95" height="4.98"/><rect class="cls-11_coding-28" x="105.57" y="219.04" width="19.95" height="4.98"/><rect class="cls-11_coding-28" x="72.94" y="193.91" width="19.95" height="4.98"/><circle class="cls-11_coding-28" cx="70.79" cy="141.5" r="2.35"/><circle class="cls-18_coding-28 targetColor" cx="77.78" cy="141.5" r="2.35" style="fill: rgb(49, 174, 72);"/><circle class="cls-17_coding-28" cx="84.36" cy="141.5" r="2.35"/><rect class="cls-11_coding-28" x="72.94" y="156.03" width="19.95" height="4.98"/><rect class="cls-11_coding-28" x="85.71" y="168.49" width="19.95" height="4.98"/><rect class="cls-17_coding-28" x="114.99" y="168.49" width="39.79" height="4.98"/><rect class="cls-11_coding-28" x="85.71" y="180.04" width="19.95" height="4.98"/><rect class="cls-18_coding-28 targetColor" x="100.86" y="156.03" width="41.09" height="4.98" style="fill: rgb(49, 174, 72);"/><path class="cls-18_coding-28 targetColor" d="m212.31,166.68s-58.8,4.03-63.3,36.69c-2.5,18.14,2.47,34.55,7.38,45.55,3.21,7.18-1.46,15.44-9.25,16.53l-60.63,8.49v14.06l84.35-2.5c17.71-.53,32.23-14.22,33.79-31.87l7.67-86.93Z" style="fill: rgb(49, 174, 72);"/><path class="cls-18_coding-28 targetColor" d="m289.77,166.68s58.8,4.03,63.3,36.69c2.5,18.14-2.47,34.55-7.38,45.55-3.21,7.18,1.46,15.44,9.25,16.53l60.63,8.49v14.06s-84.35-2.5-84.35-2.5c-17.71-.53-32.23-14.22-33.79-31.87l-7.67-86.93Z" style="fill: rgb(49, 174, 72);"/><g class="cls-2_coding-28"><path class="cls-11_coding-28" d="m212.31,166.68s-58.8,4.03-63.3,36.69c-2.5,18.14,2.47,34.55,7.38,45.55,3.21,7.18-1.46,15.44-9.25,16.53l-60.63,8.49v14.06l84.35-2.5c17.71-.53,32.23-14.22,33.79-31.87l7.67-86.93Z"/></g><g class="cls-2_coding-28"><path class="cls-11_coding-28" d="m289.77,166.68s58.8,4.03,63.3,36.69c2.5,18.14-2.47,34.55-7.38,45.55-3.21,7.18,1.46,15.44,9.25,16.53l60.63,8.49v14.06s-84.35-2.5-84.35-2.5c-17.71-.53-32.23-14.22-33.79-31.87l-7.67-86.93Z"/></g><rect class="cls-14_coding-28" x="30.21" y="298.62" width="443.4" height="124.86"/><rect class="cls-14_coding-28" x="30.21" y="285.58" width="443.4" height="30.52"/><path class="cls-12_coding-28" d="m245.61,166.68l7.17-31.31s.24-14.65,9.65-11.25c9.42,3.4,12.23,20.4,7.16,26.16-5.07,5.75-8.47-2.09-8.47-2.09v17.3l-15.52,1.19Z"/><g class="cls-10_coding-28"><path class="cls-16_coding-28" d="m369.7,286.63s-38.96,8.31-22.69,24.02c16.27,15.71,7.31,37.85-3.97,44.23-11.28,6.39-58.02,14.08-43.1,67.95h-52.68l-3.88-28.76-33.8-35.67,14.77-34.42,41.54-56.47,28.15,23.38,15.41-5.3,60.26,1.05Z"/></g><path class="cls-18_coding-28 targetColor" d="m236.24,165.25s-58.61-5.22-66.27,34.34c-7.66,39.56,46.9,114.27,46.9,114.27l76.01-2.96s118.09-165.88-56.63-145.66Z" style="fill: rgb(49, 174, 72);"/><path class="cls-18_coding-28 targetColor" d="m243.38,394.06s3.4,4.46,1.15,8.69c-2.25,4.23.99,7.81,4.34,4.86,3.35-2.94,4.72-15.23,4.72-15.23l-7.55-4.41-2.67,6.09Z" style="fill: rgb(49, 174, 72);"/><path class="cls-15_coding-28" d="m216.86,313.87s-5.07,26.6,6.33,27.87,92.06,4.86,105.57-6.44,10.13-26.92-35.89-24.39l-76.01,2.96Z"/><path class="cls-15_coding-28" d="m216.2,318.44s-35.24,27.52-17.08,47.79c18.16,20.27,44.34,32.09,44.34,32.09l3.8-9.71s-54.9-42.65-2.96-51.1l-28.11-19.08Z"/><rect class="cls-17_coding-28" x="201.92" y="228.86" width="98.03" height="77.29" rx="26.78" ry="26.78"/><rect class="cls-17_coding-28" x="240.86" y="267.5" width="19.3" height="77.41"/><g class="cls-8_coding-28"><rect class="cls-16_coding-28" x="240.86" y="267.5" width="19.3" height="77.41"/></g><rect class="cls-17_coding-28" x="212.31" y="335.31" width="77.45" height="23.12"/><path class="cls-15_coding-28" d="m247.81,145.64l.13-7.41c.06-3.44-1.16-6.84-3.61-9.25-1.62-1.59-2.75-3.88-.81-6.66,3.88-5.56,7.15-1.96,11.08-6.87s6.87-5.89,11.45,0c4.58,5.89,8.18-.98,10.79,6.21,2.62,7.2.33,10.79-9.81,11.45-8.62.56-5.93,10.32-13.94,15.45-2.3,1.47-5.32-.19-5.27-2.92Z"/><rect class="cls-17_coding-28" x="244.37" y="358.42" width="12.29" height="53.42"/><g class="cls-8_coding-28"><rect class="cls-16_coding-28" x="244.37" y="358.42" width="12.29" height="53.42"/></g><polygon class="cls-17_coding-28" points="244.37 411.84 220.59 433.8 282.31 433.8 256.66 411.84 244.37 411.84"/><rect class="cls-13_coding-28" x="405.76" y="326.97" width="45.61" height="78.97"/><rect class="cls-14_coding-28" x="384.37" y="316.1" width="10.7" height="107.38"/><rect class="cls-14_coding-28" x="462.91" y="316.1" width="10.7" height="107.38"/><rect class="cls-14_coding-28" x="394.01" y="405.94" width="79.6" height="17.54"/><rect class="cls-14_coding-28" x="30.21" y="316.1" width="22.52" height="107.38"/><g class="cls-3_coding-28"><rect class="cls-13_coding-28" x="52.73" y="393.12" width="64.19" height="12.82"/></g><rect class="cls-13_coding-28" x="52.73" y="405.43" width="96.68" height="18.04"/><rect class="cls-18_coding-28 targetColor" x="150.56" y="156.03" width="29.18" height="4.98" style="fill: rgb(49, 174, 72);"/><circle class="cls-13_coding-28" cx="146.32" cy="244.98" r="6.27"/><circle class="cls-11_coding-28" cx="304.81" cy="141.5" r="2.35"/><g class="cls-4_coding-28"><path class="cls-18_coding-28 targetColor" d="m81.11,373.99s-15.56-4.25-18.95-18.73c0,0,24.11-4.87,24.8,20.01l-5.85-1.28Z" style="fill: rgb(49, 174, 72);"/></g><g class="cls-7_coding-28"><path class="cls-18_coding-28 targetColor" d="m83.02,372.45s-10.87-17.19-1.3-33.26c0,0,18.33,11.64,10.19,33.29l-8.88-.04Z" style="fill: rgb(49, 174, 72);"/></g><path class="cls-18_coding-28 targetColor" d="m85.82,372.46s5.74-18.15,23.11-21.59c0,0,3.25,11.79-11.24,21.64l-11.86-.05Z" style="fill: rgb(49, 174, 72);"/><polygon class="cls-15_coding-28" points="74.54 372.05 77.69 393.63 97.56 393.72 100.49 372.16 74.54 372.05"/><circle class="cls-11_coding-28" cx="436.27" cy="345.04" r="5.84"/><g class="cls-5_coding-28"><rect class="cls-11_coding-28" x="413.54" y="358.42" width="31.81" height="39.91"/></g></g><g id="code_coding-28"><rect class="cls-17_coding-28" x="422.69" y="104.79" width="65.46" height="45"/><path class="cls-11_coding-28" d="m446.62,136.13c-.33,0-.66-.11-.94-.33l-9.81-7.76c-.36-.29-.57-.72-.58-1.18,0-.46.21-.9.57-1.19l9.81-7.9c.65-.53,1.6-.42,2.13.23.52.65.42,1.61-.23,2.13l-8.33,6.71,8.32,6.58c.66.52.77,1.47.25,2.13-.3.38-.74.58-1.19.58Z"/><path class="cls-11_coding-28" d="m464.39,136.13c-.45,0-.89-.2-1.19-.58-.52-.66-.41-1.61.25-2.13l8.32-6.58-8.33-6.71c-.65-.52-.75-1.48-.23-2.13.53-.65,1.48-.75,2.13-.23l9.81,7.9c.36.29.57.73.57,1.19,0,.46-.21.9-.58,1.18l-9.81,7.76c-.28.22-.61.33-.94.33Z"/><path class="cls-11_coding-28" d="m451.39,136.13c-.21,0-.42-.04-.63-.14-.76-.35-1.1-1.25-.75-2.01l7.15-15.65c.35-.76,1.25-1.1,2.01-.75.76.35,1.1,1.25.75,2.01l-7.15,15.65c-.25.56-.8.89-1.38.89Z"/></g></svg>