<svg id="_0289_note_taking" xmlns="http://www.w3.org/2000/svg" viewBox="0 0 500 500" data-imageid="note-taking-46" imageName="Note Taking" class="illustrations_image" style="width: 183px;"><defs><style>.cls-1_note-taking-46{fill:none;opacity:.45;}.cls-2_note-taking-46,.cls-3_note-taking-46{fill:#fff;}.cls-4_note-taking-46{fill:#f4a28c;}.cls-5_note-taking-46{fill:#a5a5a5;}.cls-6_note-taking-46{fill:#e6e6e6;}.cls-7_note-taking-46{fill:#ce8172;opacity:.31;}.cls-8_note-taking-46{opacity:.58;}.cls-8_note-taking-46,.cls-9_note-taking-46,.cls-10_note-taking-46{fill:#68e1fd;}.cls-3_note-taking-46{opacity:.46;}.cls-11_note-taking-46{fill:#24285b;}.cls-12_note-taking-46{fill:#000001;opacity:.08;}.cls-9_note-taking-46{opacity:.73;}.cls-13_note-taking-46{fill:#ffd200;}</style></defs><g id="tasks_note-taking-46"><rect class="cls-6_note-taking-46" x="311.94" y="24.64" width="156.41" height="170.29"/><rect class="cls-5_note-taking-46" x="336.02" y="45.85" width="27.2" height="27.2"/><path class="cls-2_note-taking-46" d="m347.8,67.63h0c-.69,0-1.33-.35-1.71-.92l-3.87-5.86c-.63-.95-.37-2.23.58-2.85.95-.63,2.22-.37,2.85.58l2.17,3.28,5.34-7.95c.63-.94,1.91-1.2,2.86-.56.94.63,1.19,1.91.56,2.86l-7.06,10.51c-.38.57-1.02.91-1.71.91Z"/><rect class="cls-2_note-taking-46" x="378.02" y="54.76" width="63" height="10.82"/><rect class="cls-5_note-taking-46" x="336.02" y="95.3" width="27.2" height="27.2"/><path class="cls-2_note-taking-46" d="m347.8,117.09h0c-.69,0-1.33-.35-1.71-.92l-3.87-5.86c-.63-.95-.37-2.23.58-2.85.95-.63,2.22-.37,2.85.58l2.17,3.28,5.34-7.95c.63-.94,1.91-1.2,2.86-.56.94.63,1.19,1.91.56,2.86l-7.06,10.51c-.38.57-1.02.91-1.71.91Z"/><rect class="cls-2_note-taking-46" x="378.02" y="104.21" width="63" height="10.82"/><rect class="cls-5_note-taking-46" x="336.02" y="141.51" width="27.2" height="27.2"/><path class="cls-2_note-taking-46" d="m347.8,163.29h0c-.69,0-1.33-.35-1.71-.92l-3.87-5.86c-.63-.95-.37-2.23.58-2.85.95-.63,2.22-.37,2.85.58l2.17,3.28,5.34-7.95c.63-.94,1.91-1.2,2.86-.56.94.63,1.19,1.91.56,2.86l-7.06,10.51c-.38.57-1.02.91-1.71.91Z"/><rect class="cls-2_note-taking-46" x="378.02" y="150.42" width="63" height="10.82"/><path class="cls-12_note-taking-46" d="m311.94,108.9s56.2,39.13,57.41,86.03h-33.34l-24.07-86.03Z"/></g><g id="sd_note-taking-46" class="cls-1_note-taking-46"><ellipse class="cls-6_note-taking-46" cx="199.32" cy="448" rx="27.35" ry="155.55" transform="translate(-249.51 645.45) rotate(-89.76)"/></g><g id="plant_note-taking-46"><path class="cls-8_note-taking-46 targetColor" d="m138.03,426.07s17.81-4.78,21.75-21.32c0,0-27.54-5.69-28.44,22.76l6.69-1.44Z" style="fill: rgb(49, 174, 72);"/><path class="cls-9_note-taking-46 targetColor" d="m135.86,424.29s12.51-19.6,1.65-38.01c0,0-21.01,13.22-11.8,38.01h10.15Z" style="fill: rgb(49, 174, 72);"/><path class="cls-10_note-taking-46 targetColor" d="m132.66,424.29s-6.48-20.78-26.31-24.79c0,0-3.78,13.46,12.75,24.79h13.56Z" style="fill: rgb(49, 174, 72);"/><polygon class="cls-11_note-taking-46" points="145.56 423.88 141.85 448.54 119.14 448.54 115.9 423.88 145.56 423.88"/></g><g id="person_note-taking-46"><path class="cls-10_note-taking-46 targetColor" d="m221.97,112.12l-51.07,40.6s-47.91,48.06-17.84,79.49c30.06,31.43,73.87-14.58,73.87-14.58l-4.95-105.51Z" style="fill: rgb(49, 174, 72);"/><path class="cls-12_note-taking-46" d="m221.97,112.12l-51.07,40.6s-47.91,48.06-17.84,79.49c30.06,31.43,73.87-14.58,73.87-14.58l-4.95-105.51Z"/><rect class="cls-11_note-taking-46" x="172.55" y="124.74" width="5.89" height="38.11" transform="translate(-51.34 139.15) rotate(-38.16)"/><path class="cls-4_note-taking-46" d="m170.9,152.73s7.94-9.39,15.09-6.29c7.15,3.1,5.26,17.3-7.19,17.54-12.45.24-7.9-11.25-7.9-11.25Z"/><path class="cls-10_note-taking-46 targetColor" d="m220.55,436.15s-3.21,6.04-9.03,5.7c-5.83-.34-8.14,5.07-3.18,7.28,4.97,2.21,19.27-2.53,19.27-2.53l1.04-10.61-8.1.15Z" style="fill: rgb(49, 174, 72);"/><path class="cls-4_note-taking-46" d="m246.01,49.22s-1.08,12.13.94,20.2c.82,3.27,4.19,5.29,7.46,4.42,4.05-1.08,9.21-3.71,10.58-10.14l3.66-10.63s2.06-6.74-4.79-11.69c-6.85-4.95-17.57.41-17.85,7.83Z"/><polygon class="cls-4_note-taking-46" points="267.99 55 274.17 94.42 252.2 96.27 256.53 66.85 267.99 55"/><path class="cls-4_note-taking-46" d="m258.92,59.67s.1-4.69,3.62-4.32c3.52.37,3.42,7.14-1.37,7.76l-2.25-3.45Z"/><path class="cls-4_note-taking-46" d="m245.72,56.89l-3.4,4.68c-.84,1.16-.19,2.79,1.21,3.06l4.65.89-2.46-8.63Z"/><path class="cls-7_note-taking-46" d="m255.31,73.25s4.07-.82,7.14-4.23c0,0-.33,7.3-8.36,14.48l1.23-10.25Z"/><path class="cls-10_note-taking-46 targetColor" d="m277.44,94.43l-27.35,2.31s-54.2,15.94-52.01,66.89c2.19,50.96,7.1,113.36,7.1,113.36l72.91,9.53s121.2-164.95-.64-192.09Z" style="fill: rgb(49, 174, 72);"/><path class="cls-12_note-taking-46" d="m288.95,126.99s-25.76,12.81-23.95,43.78c1.81,30.97-3.31,42.09-35.26,38.51-31.96-3.58-28.6,10.3-28.6,10.3l4.04,57.4,72.91,9.53,6.57-9.53s58.43-106.87,4.29-149.99Z"/><path class="cls-11_note-taking-46" d="m205.18,276.99l-19.57,16.29c-22.81,18.99-19.55,54.94,6.3,69.51l37.54,21.16,12.48-9.1-28.09-23.31c-7.8-6.47-6.98-18.68,1.62-24.05l10.01-6.25c5.56-3.47,11.79-5.74,18.3-6.56,10.83-1.37,28.91-6.9,34.3-28.17l-72.91-9.53Z"/><path class="cls-11_note-taking-46" d="m245.72,33.62s-6.88,16.85,6.48,18.22c13.37,1.37,4.92,10.52,12.79,11.87,7.87,1.34,16.87-17.79,9.18-27.35-7.69-9.57-24.61-10.48-28.45-2.73Z"/><path class="cls-11_note-taking-46" d="m278.09,286.52l-49.43,149.48-12.41-.13s16.85-99.75,15.03-141.66l46.81-7.69Z"/><path class="cls-10_note-taking-46 targetColor" d="m280.15,137.06c-2.09-18.77,20.2-29.87,33.93-16.91,14.14,13.35,29.1,34.84,33.03,67.67,7.95,66.49-15.45,131.89-118.35,26.22l10.47-12.12s51.13,35.31,66.26,29.27c11.54-4.61-20.67-52.41-25.33-94.14Z" style="fill: rgb(49, 174, 72);"/><path class="cls-3_note-taking-46" d="m280.15,137.06c-2.09-18.77,20.2-29.87,33.93-16.91,14.14,13.35,29.1,34.84,33.03,67.67,7.95,66.49-15.45,131.89-118.35,26.22l10.47-12.12s51.13,35.31,66.26,29.27c11.54-4.61-20.67-52.41-25.33-94.14Z"/><rect class="cls-13_note-taking-46" x="175.66" y="154.15" width="54.61" height="79.72" transform="translate(-22.75 27.01) rotate(-7.21)"/><path class="cls-4_note-taking-46" d="m231.46,210.92s-21.17-10.22-16.02-17.91c5.15-7.69,23.78,8.93,23.78,8.93l-7.76,8.99Z"/></g><g id="clock2_note-taking-46"><circle class="cls-6_note-taking-46" cx="72.98" cy="73.29" r="41.33"/><circle class="cls-2_note-taking-46" cx="72.98" cy="73.29" r="29.22"/><path class="cls-5_note-taking-46" d="m72.98,78.19c-.49,0-.97-.18-1.35-.5-.45-.39-.71-.96-.71-1.56v-19.63c0-1.14.92-2.06,2.06-2.06s2.06.92,2.06,2.06v17.25l13.76-1.98c1.14-.16,2.17.62,2.33,1.75.16,1.13-.62,2.17-1.75,2.33l-16.11,2.32c-.1.01-.2.02-.29.02Z"/></g><g id="clock1_note-taking-46"><circle class="cls-6_note-taking-46" cx="72.98" cy="185.2" r="41.33"/><circle class="cls-2_note-taking-46" cx="72.98" cy="185.2" r="29.22"/><path class="cls-5_note-taking-46" d="m72.98,190.1c-.49,0-.97-.18-1.35-.5-.45-.39-.71-.96-.71-1.56v-19.63c0-1.14.92-2.06,2.06-2.06s2.06.92,2.06,2.06v17.25l13.76-1.98c1.14-.16,2.17.62,2.33,1.75.16,1.13-.62,2.17-1.75,2.33l-16.11,2.32c-.1.01-.2.02-.29.02Z"/></g><g id="notes_note-taking-46"><rect class="cls-6_note-taking-46" x="311.94" y="289.47" width="156.41" height="106.32"/><circle class="cls-12_note-taking-46" cx="332.76" cy="313.34" r="6.53"/><circle class="cls-12_note-taking-46" cx="332.76" cy="341.43" r="6.53"/><circle class="cls-12_note-taking-46" cx="332.76" cy="369.52" r="6.53"/><path class="cls-2_note-taking-46" d="m434.04,315.4h-77.13c-1.14,0-2.06-.92-2.06-2.06s.92-2.06,2.06-2.06h77.13c1.14,0,2.06.92,2.06,2.06s-.92,2.06-2.06,2.06Z"/><path class="cls-2_note-taking-46" d="m434.04,343.49h-77.13c-1.14,0-2.06-.92-2.06-2.06s.92-2.06,2.06-2.06h77.13c1.14,0,2.06.92,2.06,2.06s-.92,2.06-2.06,2.06Z"/><path class="cls-2_note-taking-46" d="m434.04,371.58h-77.13c-1.14,0-2.06-.92-2.06-2.06s.92-2.06,2.06-2.06h77.13c1.14,0,2.06.92,2.06,2.06s-.92,2.06-2.06,2.06Z"/></g><g id="calendar_note-taking-46"><rect class="cls-6_note-taking-46" x="36.17" y="282.73" width="73.63" height="58.25"/><rect class="cls-5_note-taking-46" x="36.17" y="271.78" width="73.63" height="19.25"/><rect class="cls-6_note-taking-46" x="46.95" y="261.77" width="6.28" height="15.96"/><rect class="cls-6_note-taking-46" x="92.5" y="261.6" width="6.28" height="15.96"/><path class="cls-2_note-taking-46" d="m58.19,304.92c1.39-1.16,3.23-1.74,5.51-1.74,1.55,0,2.88.27,3.99.81s1.94,1.28,2.51,2.2c.57.93.85,1.97.85,3.15,0,1.34-.35,2.47-1.04,3.4-.69.93-1.52,1.55-2.47,1.87v.13c1.23.38,2.2,1.06,2.89,2.04s1.04,2.23,1.04,3.77c0,1.28-.29,2.42-.88,3.42-.59,1-1.45,1.78-2.59,2.35-1.14.56-2.51.84-4.1.84-2.41,0-4.36-.61-5.87-1.82-1.51-1.21-2.31-3-2.4-5.36h4.34c.04,1.04.4,1.88,1.07,2.51.67.63,1.59.94,2.76.94,1.09,0,1.92-.3,2.51-.91.58-.61.88-1.39.88-2.35,0-1.28-.4-2.19-1.21-2.74-.81-.56-2.07-.83-3.77-.83h-.93v-3.67h.93c3.02,0,4.53-1.01,4.53-3.03,0-.91-.27-1.63-.81-2.14s-1.33-.77-2.35-.77-1.77.27-2.31.81-.86,1.23-.94,2.06h-4.37c.11-2.13.86-3.77,2.25-4.93Z"/><path class="cls-2_note-taking-46" d="m77,306.41c1.33-2.09,3.54-3.13,6.62-3.13s5.29,1.04,6.62,3.13c1.33,2.09,1.99,4.97,1.99,8.65s-.67,6.61-1.99,8.72c-1.33,2.11-3.54,3.16-6.62,3.16s-5.29-1.05-6.62-3.16c-1.33-2.11-2-5.01-2-8.72s.67-6.57,2-8.65Zm10.53,4.68c-.2-1.07-.61-1.95-1.21-2.63-.61-.68-1.51-1.02-2.7-1.02s-2.09.34-2.7,1.02c-.61.68-1.01,1.56-1.21,2.63-.2,1.08-.3,2.4-.3,3.98s.1,2.97.29,4.07c.19,1.1.6,1.98,1.21,2.65.62.67,1.52,1.01,2.71,1.01s2.1-.34,2.71-1.01c.62-.67,1.02-1.55,1.21-2.65.19-1.1.29-2.45.29-4.07s-.1-2.9-.3-3.98Z"/></g></svg>