<svg id="_0502_progress" xmlns="http://www.w3.org/2000/svg" viewBox="0 0 500 500" data-imageid="progress-92" imageName="Progress" class="illustrations_image" style="width: 183px;"><defs><style>.cls-1_progress-92{fill:#fff;}.cls-2_progress-92{fill:#f4a28c;}.cls-3_progress-92{opacity:.46;}.cls-3_progress-92,.cls-4_progress-92,.cls-5_progress-92,.cls-6_progress-92{fill:none;}.cls-7_progress-92{fill:#a5a5a5;}.cls-8_progress-92{fill:#ce8172;}.cls-9_progress-92{fill:#e6e6e6;}.cls-4_progress-92{opacity:.08;}.cls-5_progress-92{opacity:.31;}.cls-6_progress-92{opacity:.3;}.cls-10_progress-92{fill:#24285b;}.cls-11_progress-92{fill:#000001;}.cls-12_progress-92{fill:#ffd200;}.cls-13_progress-92{fill:#68e1fd;}</style></defs><g id="bg_progress-92"><g class="cls-6_progress-92"><path class="cls-9_progress-92" d="m383.62,72.53c49.83,22.58,89.07,84.22,100.05,160.63,9.25,64.39-3.65,143.13-84.57,178.35-82.59,35.94-314.72,49.83-359.29-55.12C-4.76,251.46,2.57,117.95,90.53,72.16c61.66-32.11,195.77-43.71,293.09.38Z"/></g><path class="cls-9_progress-92" d="m420.33,196.32c0,7.64-3.09,14.55-8.11,19.54-5,5.02-11.91,8.11-19.55,8.11H92.26c-15.27,0-27.65-12.38-27.65-27.65,0-7.64,3.09-14.55,8.11-19.55,5-5.02,11.91-8.11,19.54-8.11h300.42c15.27,0,27.65,12.38,27.65,27.65Z"/><path class="cls-9_progress-92" d="m431.55,195.35c0,7.64-3.09,14.55-8.11,19.54-5,5.02-11.91,8.11-19.55,8.11H103.48c-15.27,0-27.65-12.38-27.65-27.65,0-7.64,3.09-14.55,8.11-19.55,5-5.02,11.91-8.11,19.54-8.11h300.42c15.27,0,27.65,12.38,27.65,27.65Z"/><circle class="cls-12_progress-92" cx="364.87" cy="196.32" r="28.63"/><path class="cls-9_progress-92" d="m195.62,144.67c0,3.02-1.22,5.76-3.21,7.74-1.98,1.99-4.72,3.21-7.74,3.21h-119c-6.05,0-10.95-4.9-10.95-10.95,0-3.02,1.22-5.76,3.21-7.74,1.98-1.99,4.72-3.21,7.74-3.21h119c6.05,0,10.95,4.9,10.95,10.95Z"/><path class="cls-9_progress-92" d="m195.62,144.67c0,3.02-1.22,5.76-3.21,7.74-1.98,1.99-4.72,3.21-7.74,3.21h-119c-6.05,0-10.95-4.9-10.95-10.95,0-3.02,1.22-5.76,3.21-7.74,1.98-1.99,4.72-3.21,7.74-3.21h119c6.05,0,10.95,4.9,10.95,10.95Z"/><path class="cls-7_progress-92" d="m151.46,144.67c0,3.02-1.22,5.76-3.21,7.74-1.98,1.99-4.72,3.21-7.74,3.21h-74.84c-6.05,0-10.95-4.9-10.95-10.95,0-3.02,1.22-5.76,3.21-7.74,1.98-1.99,4.72-3.21,7.74-3.21h74.84c6.05,0,10.95,4.9,10.95,10.95Z"/><path class="cls-9_progress-92" d="m463.96,260.95c0,3.02-1.22,5.76-3.21,7.74-1.98,1.99-4.72,3.21-7.74,3.21h-119c-6.05,0-10.95-4.9-10.95-10.95,0-3.02,1.22-5.76,3.21-7.74,1.98-1.99,4.72-3.21,7.74-3.21h119c6.05,0,10.95,4.9,10.95,10.95Z"/><path class="cls-9_progress-92" d="m463.95,260.95c0,3.03-1.23,5.76-3.21,7.74-1.97,1.98-4.71,3.21-7.74,3.21h-119c-6.05,0-10.95-4.91-10.95-10.95,0-3.03,1.23-5.76,3.21-7.74,1.98-1.98,4.71-3.21,7.74-3.21h119c6.06,0,10.95,4.91,10.95,10.95Z"/><path class="cls-7_progress-92" d="m388.85,260.95c0,3.03-1.23,5.76-3.21,7.74-1.98,1.98-4.71,3.21-7.74,3.21h-43.89c-6.05,0-10.95-4.91-10.95-10.95,0-3.03,1.23-5.76,3.21-7.74,1.98-1.98,4.71-3.21,7.74-3.21h43.89c6.05,0,10.95,4.91,10.95,10.95Z"/><polygon class="cls-9_progress-92" points="388.85 351.31 340.34 323.04 340.34 341.11 270.21 341.11 270.21 361.51 340.34 361.51 340.34 379.58 388.85 351.31"/><polygon class="cls-9_progress-92" points="313.01 94.66 264.5 66.38 264.5 84.46 194.37 84.46 194.37 104.86 264.5 104.86 264.5 122.93 313.01 94.66"/></g><g id="person_progress-92"><path class="cls-13_progress-92 targetColor" d="m35.64,424.66s-7.2,1.73-8.41,7.93c-1.21,6.2-7.51,7.17-8.49,1.37-.98-5.8,7.84-19.52,7.84-19.52l11.4,1.77-2.34,8.45Z" style="fill: rgb(49, 174, 72);"/><path class="cls-13_progress-92 targetColor" d="m347.58,214.1l-28.21,29.4c-17.62,18.37-44.86,23.74-68.14,13.44l-31.21-13.81-31.35,53.84,45.38,6.8c39.89,5.98,79.64-11.69,101.93-45.31l21.92-33.07c-3.55-3.67-6.99-7.43-10.31-11.3Z" style="fill: rgb(49, 174, 72);"/><g class="cls-3_progress-92"><path class="cls-1_progress-92" d="m347.58,214.1l-28.21,29.4c-17.62,18.37-44.86,23.74-68.14,13.44l-31.21-13.81-31.35,53.84,45.38,6.8c39.89,5.98,79.64-11.69,101.93-45.31l21.92-33.07c-3.55-3.67-6.99-7.43-10.31-11.3Z"/></g><path class="cls-13_progress-92 targetColor" d="m130.09,418.15s-5.56,4.89-3.74,10.94c1.82,6.05-3.3,9.84-6.87,5.17s-2.16-20.93-2.16-20.93l10.91-3.75,1.87,8.57Z" style="fill: rgb(49, 174, 72);"/><path class="cls-10_progress-92" d="m193.65,359.78l-49.52,35.32c-25.6,18.26-55.94,28.72-87.36,30.11l-20.61.91v-11.22s33.22-11.21,33.22-11.21c12.67-4.28,24.16-11.48,33.54-21.02l32.85-33.44,57.88,10.54Z"/><g class="cls-4_progress-92"><path class="cls-11_progress-92" d="m193.65,359.78l-49.52,35.32c-25.6,18.26-55.94,28.72-87.36,30.11l-20.61.91v-11.22s33.22-11.21,33.22-11.21c12.67-4.28,24.16-11.48,33.54-21.02l32.85-33.44,57.88,10.54Z"/></g><path class="cls-2_progress-92" d="m227.64,204.08s3.45,7.33,4.02,12.84c.23,2.23-1.41,4.26-3.65,4.47-2.78.25-6.61-.22-8.93-3.92l-4.72-5.81s-2.83-3.74.33-8.4c3.15-4.66,11.07-3.75,12.95.82Z"/><polygon class="cls-2_progress-92" points="217.78 212.62 211.94 238.51 226.45 240.71 224.87 220.98 217.78 212.62"/><path class="cls-10_progress-92" d="m225.87,205.09c-1.3.56-3.74,1.45-7.21,2.04,0,0,3.59,2.44,2.56,6.96-1.04,4.52-5.48,4.35-5.48,4.35l-3.47-9.81c-1.1-2.83-.58-6.04,1.38-8.35.8-.94,1.72-1.93,2.68-2.79,2.4-2.16,7.21-1.8,9.03-4.63.8-1.24,2.64-1.16,3.35.13,1.53,2.81,2.72,7.68-.7,10.78-.63.57-1.37.98-2.14,1.32Z"/><path class="cls-2_progress-92" d="m221.96,213.56s-1.13-2.91-3.25-1.87c-2.12,1.03-.5,5.24,2.63,4.54l.62-2.67Z"/><path class="cls-2_progress-92" d="m229.58,208.81l3.2,2.15c.79.53.76,1.7-.06,2.19l-2.71,1.62-.43-5.96Z"/><g class="cls-5_progress-92"><path class="cls-8_progress-92" d="m224.6,221.59s-2.76-.17-5.09-2.13c0,0-.32,4.9,5.63,8.89l-.54-6.76Z"/></g><path class="cls-13_progress-92 targetColor" d="m226.45,240.71l-14.5-2.19s-73.93-20.85-84.7,23.51c-10.77,44.35-9.5,73.64-9.5,73.64l49.88,24.28s137.3-55.85,58.82-119.24Z" style="fill: rgb(49, 174, 72);"/><g class="cls-4_progress-92"><path class="cls-11_progress-92" d="m194.24,268.44s8.04,20.02-22.24,26.49c-30.29,6.47-30.29,26.88-10.43,28.11,19.85,1.24,49.17-9.54,48.64,13.68,0,0-23.07,15.82-42.59,23.22l-49.88-24.28-.05-3.09-2.57-43.3,25.91-24.9,53.2,4.06Z"/></g><path class="cls-13_progress-92 targetColor" d="m197.17,255.51c-1.89-13.82-14.89-23.3-28.75-21.72-19.03,2.16-47.86,10.66-61.21,41.17-20.86,47.68-8.08,77.42,91.53,48.08l-2.69-11.17s-67.3,8.03-63.26-13.15c3.41-17.87,68.77-11.22,64.39-43.21Z" style="fill: rgb(49, 174, 72);"/><g class="cls-3_progress-92"><path class="cls-1_progress-92" d="m197.17,255.51c-1.89-13.82-14.89-23.3-28.75-21.72-19.03,2.16-47.86,10.66-61.21,41.17-20.86,47.68-8.08,77.42,91.53,48.08l-2.69-11.17s-67.3,8.03-63.26-13.15c3.41-17.87,68.77-11.22,64.39-43.21Z"/></g><path class="cls-2_progress-92" d="m196.04,311.87s9.28-9.12,15.67-7.78,2.71,14.63-12.98,18.95l-2.69-11.17Z"/><path class="cls-10_progress-92" d="m117.74,335.66s96.71,12.17,92.48,36.4c-4.23,24.23-80.96,48.46-80.96,48.46l-6.06-12.11,49.8-35.67s-84.28,20.08-55.27-37.07Z"/><path class="cls-2_progress-92" d="m357.89,225.39s7.16-11.42,6.71-15.04c-.45-3.62-4.52.82-4.52.82,0,0,4.82-7.9,2.41-12.72-2.41-4.82-8.99,9.48-14.91,15.64l10.31,11.3Z"/></g></svg>